ffmpeg started on 2025-05-28 at 21:41:07
Report written to "D:\Convert\FFMetrics\reports\psnr_report-6.txt"
Log level: 32
Command line:
ffmpeg -hide_banner -nostdin -i "G:\\\xc0\xed\xe8\xec\xe5\\\xce\xed\xe3\xee\xe8\xed\xe3\xe8\\!_36_\xce\xf1\xe5\xed\xfc_2024\\JamClub\\\xcb\xfe\xe1\xee\xe2\xfc \xcc\xf3\xf0\xe0\xe8\\JamClub_Murai_no_Koi_10_1080p_HEVC.mkv" -i "G:\\\xc0\xed\xe8\xec\xe5\\\xce\xed\xe3\xee\xe8\xed\xe3\xe8\\!_36_\xce\xf1\xe5\xed\xfc_2024\\JamClub\\\xcb\xfe\xe1\xee\xe2\xfc \xcc\xf3\xf0\xe0\xe8\\JamClub_Murai_no_Koi_10_1080p.mp4" -lavfi "[0:v]settb=AVTB,setpts=PTS-STARTPTS,format=pix_fmts=yuv420p10,fps=24000/1001,scale=1920:1080:flags=bicubic[main];[1:v]settb=AVTB,setpts=PTS-STARTPTS,format=pix_fmts=yuv420p,fps=24000/1001,scale=1920:1080:flags=bicubic[ref];[main][ref]psnr=eof_action=endall:stats_file='D\\:/Convert/FFMetrics/logs/psnr_logfile-6.txt'" -f null -
Input #0, matroska,webm, from 'G:\Аниме\Онгоинги\!_36_Осень_2024\JamClub\Любовь Мураи\JamClub_Murai_no_Koi_10_1080p_HEVC.mkv':
  Metadata:
    COMPATIBLE_BRANDS: isomiso2avc1mp41
    MAJOR_BRAND     : isom
    MINOR_VERSION   : 512
    ENCODER         : Lavf61.7.100
  Duration: 00:24:34.24, start: -0.021000, bitrate: 1514 kb/s
  Stream #0:0: Video: hevc (Main 10), yuv420p10le(tv, bt709, progressive), 1920x1080 [SAR 1:1 DAR 16:9], 23.98 fps, 23.98 tbr, 1k tbn (default)
      Metadata:
        HANDLER_NAME    : VideoHandler
        VENDOR_ID       : [0][0][0][0]
        ENCODER         : Lavc61.19.100 libx265
        BPS             : 1316442
        DURATION        : 00:24:34.138708333
        NUMBER_OF_FRAMES: 35344
        NUMBER_OF_BYTES : 242577216
        _STATISTICS_WRITING_APP: mkvpropedit v66.0.0 ('Josie') 64-bit
        _STATISTICS_WRITING_DATE_UTC: 2025-05-28 13:37:54
        _STATISTICS_TAGS: BPS DURATION NUMBER_OF_FRAMES NUMBER_OF_BYTES
  Stream #0:1(eng): Audio: aac (LC), 48000 Hz, stereo, fltp (default)
      Metadata:
        HANDLER_NAME    : SoundHandler
        VENDOR_ID       : [0][0][0][0]
        ENCODER         : Lavc61.19.100 aac
        BPS             : 194314
        DURATION        : 00:24:34.221000000
        NUMBER_OF_FRAMES: 69105
        NUMBER_OF_BYTES : 35807730
        _STATISTICS_WRITING_APP: mkvpropedit v66.0.0 ('Josie') 64-bit
        _STATISTICS_WRITING_DATE_UTC: 2025-05-28 13:37:54
        _STATISTICS_TAGS: BPS DURATION NUMBER_OF_FRAMES NUMBER_OF_BYTES
Input #1, mov,mp4,m4a,3gp,3g2,mj2, from 'G:\Аниме\Онгоинги\!_36_Осень_2024\JamClub\Любовь Мураи\JamClub_Murai_no_Koi_10_1080p.mp4':
  Metadata:
    major_brand     : isom
    minor_version   : 512
    compatible_brands: isomiso2avc1mp41
    encoder         : Lavf60.16.100
  Duration: 00:24:34.22, start: 0.000000, bitrate: 4434 kb/s
  Stream #1:0[0x1](und): Video: h264 (High) (avc1 / 0x31637661), yuv420p(tv, bt709, progressive), 1920x1080 [SAR 1:1 DAR 16:9], 4236 kb/s, 23.98 fps, 23.98 tbr, 90k tbn (default)
      Metadata:
        handler_name    : VideoHandler
        vendor_id       : [0][0][0][0]
  Stream #1:1[0x2](eng): Audio: aac (LC) (mp4a / 0x6134706D), 48000 Hz, stereo, fltp, 191 kb/s (default)
      Metadata:
        handler_name    : SoundHandler
        vendor_id       : [0][0][0][0]
Stream mapping:
  Stream #0:0 (hevc) -> settb:default
  Stream #1:0 (h264) -> settb:default
  psnr:default -> Stream #0:0 (wrapped_avframe)
  Stream #0:1 -> #0:1 (aac (native) -> pcm_s16le (native))
Output #0, null, to 'pipe:':
  Metadata:
    COMPATIBLE_BRANDS: isomiso2avc1mp41
    MAJOR_BRAND     : isom
    MINOR_VERSION   : 512
    encoder         : Lavf61.7.100
  Stream #0:0: Video: wrapped_avframe, yuv420p10le(tv, bt709, progressive), 1920x1080 [SAR 1:1 DAR 16:9], q=2-31, 200 kb/s, 23.98 fps, 23.98 tbn
      Metadata:
        encoder         : Lavc61.19.100 wrapped_avframe
  Stream #0:1(eng): Audio: pcm_s16le, 48000 Hz, stereo, s16, 1536 kb/s (default)
      Metadata:
        HANDLER_NAME    : SoundHandler
        VENDOR_ID       : [0][0][0][0]
        _STATISTICS_TAGS: BPS DURATION NUMBER_OF_FRAMES NUMBER_OF_BYTES
        BPS             : 194314
        DURATION        : 00:24:34.221000000
        NUMBER_OF_FRAMES: 69105
        NUMBER_OF_BYTES : 35807730
        _STATISTICS_WRITING_APP: mkvpropedit v66.0.0 ('Josie') 64-bit
        _STATISTICS_WRITING_DATE_UTC: 2025-05-28 13:37:54
        encoder         : Lavc61.19.100 pcm_s16le
frame=  119 fps=0.0 q=-0.0 size=N/A time=00:00:04.96 bitrate=N/A speed=9.59x    frame=  281 fps=273 q=-0.0 size=N/A time=00:00:11.72 bitrate=N/A speed=11.4x    frame=  487 fps=314 q=-0.0 size=N/A time=00:00:20.31 bitrate=N/A speed=13.1x    frame=  670 fps=324 q=-0.0 size=N/A time=00:00:27.94 bitrate=N/A speed=13.5x    frame=  828 fps=322 q=-0.0 size=N/A time=00:00:34.53 bitrate=N/A speed=13.4x    frame=  972 fps=314 q=-0.0 size=N/A time=00:00:40.54 bitrate=N/A speed=13.1x    frame= 1126 fps=312 q=-0.0 size=N/A time=00:00:46.96 bitrate=N/A speed=  13x    frame= 1323 fps=321 q=-0.0 size=N/A time=00:00:55.18 bitrate=N/A speed=13.4x    frame= 1465 fps=316 q=-0.0 size=N/A time=00:01:01.10 bitrate=N/A speed=13.2x    frame= 1683 fps=327 q=-0.0 size=N/A time=00:01:10.19 bitrate=N/A speed=13.6x    frame= 1858 fps=327 q=-0.0 size=N/A time=00:01:17.49 bitrate=N/A speed=13.7x    frame= 1994 fps=323 q=-0.0 size=N/A time=00:01:23.16 bitrate=N/A speed=13.5x    frame= 2124 fps=317 q=-0.0 size=N/A time=00:01:28.58 bitrate=N/A speed=13.2x    frame= 2296 fps=318 q=-0.0 size=N/A time=00:01:35.76 bitrate=N/A speed=13.3x    frame= 2478 fps=321 q=-0.0 size=N/A time=00:01:43.35 bitrate=N/A speed=13.4x    frame= 2675 fps=325 q=-0.0 size=N/A time=00:01:51.56 bitrate=N/A speed=13.5x    frame= 2925 fps=334 q=-0.0 size=N/A time=00:02:01.99 bitrate=N/A speed=13.9x    frame= 3158 fps=340 q=-0.0 size=N/A time=00:02:11.71 bitrate=N/A speed=14.2x    frame= 3409 fps=348 q=-0.0 size=N/A time=00:02:22.18 bitrate=N/A speed=14.5x    frame= 3573 fps=347 q=-0.0 size=N/A time=00:02:29.02 bitrate=N/A speed=14.5x    frame= 3737 fps=345 q=-0.0 size=N/A time=00:02:35.86 bitrate=N/A speed=14.4x    frame= 3907 fps=344 q=-0.0 size=N/A time=00:02:42.95 bitrate=N/A speed=14.4x    frame= 4122 fps=348 q=-0.0 size=N/A time=00:02:51.92 bitrate=N/A speed=14.5x    frame= 4354 fps=352 q=-0.0 size=N/A time=00:03:01.59 bitrate=N/A speed=14.7x    frame= 4601 fps=357 q=-0.0 size=N/A time=00:03:11.90 bitrate=N/A speed=14.9x    frame= 4831 fps=360 q=-0.0 size=N/A time=00:03:21.49 bitrate=N/A speed=  15x    frame= 5068 fps=364 q=-0.0 size=N/A time=00:03:31.37 bitrate=N/A speed=15.2x    frame= 5297 fps=366 q=-0.0 size=N/A time=00:03:40.92 bitrate=N/A speed=15.3x    frame= 5500 fps=367 q=-0.0 size=N/A time=00:03:49.39 bitrate=N/A speed=15.3x    frame= 5723 fps=370 q=-0.0 size=N/A time=00:03:58.69 bitrate=N/A speed=15.4x    frame= 5982 fps=374 q=-0.0 size=N/A time=00:04:09.49 bitrate=N/A speed=15.6x    frame= 6238 fps=378 q=-0.0 size=N/A time=00:04:20.17 bitrate=N/A speed=15.8x    frame= 6458 fps=379 q=-0.0 size=N/A time=00:04:29.35 bitrate=N/A speed=15.8x    frame= 6680 fps=381 q=-0.0 size=N/A time=00:04:38.61 bitrate=N/A speed=15.9x    frame= 6889 fps=381 q=-0.0 size=N/A time=00:04:47.32 bitrate=N/A speed=15.9x    frame= 7132 fps=384 q=-0.0 size=N/A time=00:04:57.46 bitrate=N/A speed=  16x    frame= 7379 fps=387 q=-0.0 size=N/A time=00:05:07.76 bitrate=N/A speed=16.1x    frame= 7588 fps=387 q=-0.0 size=N/A time=00:05:16.48 bitrate=N/A speed=16.1x    frame= 7775 fps=386 q=-0.0 size=N/A time=00:05:24.28 bitrate=N/A speed=16.1x    frame= 8031 fps=389 q=-0.0 size=N/A time=00:05:34.95 bitrate=N/A speed=16.2x    frame= 8262 fps=391 q=-0.0 size=N/A time=00:05:44.59 bitrate=N/A speed=16.3x    frame= 8517 fps=393 q=-0.0 size=N/A time=00:05:55.22 bitrate=N/A speed=16.4x    frame= 8709 fps=393 q=-0.0 size=N/A time=00:06:03.23 bitrate=N/A speed=16.4x    frame= 8962 fps=395 q=-0.0 size=N/A time=00:06:13.79 bitrate=N/A speed=16.5x    frame= 9231 fps=398 q=-0.0 size=N/A time=00:06:25.00 bitrate=N/A speed=16.6x    frame= 9503 fps=400 q=-0.0 size=N/A time=00:06:36.35 bitrate=N/A speed=16.7x    frame= 9726 fps=401 q=-0.0 size=N/A time=00:06:45.65 bitrate=N/A speed=16.7x    frame= 9955 fps=402 q=-0.0 size=N/A time=00:06:55.20 bitrate=N/A speed=16.8x    frame=10142 fps=401 q=-0.0 size=N/A time=00:07:03.00 bitrate=N/A speed=16.7x    frame=10397 fps=403 q=-0.0 size=N/A time=00:07:13.64 bitrate=N/A speed=16.8x    frame=10640 fps=404 q=-0.0 size=N/A time=00:07:23.77 bitrate=N/A speed=16.9x    frame=10916 fps=407 q=-0.0 size=N/A time=00:07:35.28 bitrate=N/A speed=  17x    frame=11133 fps=407 q=-0.0 size=N/A time=00:07:44.33 bitrate=N/A speed=  17x    frame=11358 fps=408 q=-0.0 size=N/A time=00:07:53.72 bitrate=N/A speed=  17x    frame=11606 fps=409 q=-0.0 size=N/A time=00:08:04.06 bitrate=N/A speed=17.1x    frame=11843 fps=410 q=-0.0 size=N/A time=00:08:13.95 bitrate=N/A speed=17.1x    frame=12058 fps=410 q=-0.0 size=N/A time=00:08:22.91 bitrate=N/A speed=17.1x    frame=12332 fps=412 q=-0.0 size=N/A time=00:08:34.34 bitrate=N/A speed=17.2x    frame=12556 fps=412 q=-0.0 size=N/A time=00:08:43.68 bitrate=N/A speed=17.2x    frame=12770 fps=413 q=-0.0 size=N/A time=00:08:52.61 bitrate=N/A speed=17.2x    frame=12994 fps=413 q=-0.0 size=N/A time=00:09:01.95 bitrate=N/A speed=17.2x    frame=13231 fps=414 q=-0.0 size=N/A time=00:09:11.84 bitrate=N/A speed=17.3x    frame=13447 fps=414 q=-0.0 size=N/A time=00:09:20.85 bitrate=N/A speed=17.3x    frame=13669 fps=414 q=-0.0 size=N/A time=00:09:30.11 bitrate=N/A speed=17.3x    frame=13888 fps=414 q=-0.0 size=N/A time=00:09:39.24 bitrate=N/A speed=17.3x    frame=14128 fps=415 q=-0.0 size=N/A time=00:09:49.25 bitrate=N/A speed=17.3x    frame=14345 fps=415 q=-0.0 size=N/A time=00:09:58.30 bitrate=N/A speed=17.3x    frame=14551 fps=415 q=-0.0 size=N/A time=00:10:06.89 bitrate=N/A speed=17.3x    frame=14784 fps=415 q=-0.0 size=N/A time=00:10:16.61 bitrate=N/A speed=17.3x    frame=15015 fps=416 q=-0.0 size=N/A time=00:10:26.25 bitrate=N/A speed=17.3x    frame=15246 fps=416 q=-0.0 size=N/A time=00:10:35.88 bitrate=N/A speed=17.4x    frame=15492 fps=417 q=-0.0 size=N/A time=00:10:46.14 bitrate=N/A speed=17.4x    frame=15727 fps=418 q=-0.0 size=N/A time=00:10:55.94 bitrate=N/A speed=17.4x    frame=15991 fps=419 q=-0.0 size=N/A time=00:11:06.95 bitrate=N/A speed=17.5x    frame=16246 fps=420 q=-0.0 size=N/A time=00:11:17.59 bitrate=N/A speed=17.5x    frame=16534 fps=421 q=-0.0 size=N/A time=00:11:29.60 bitrate=N/A speed=17.6x    frame=16801 fps=423 q=-0.0 size=N/A time=00:11:40.74 bitrate=N/A speed=17.6x    frame=17060 fps=424 q=-0.0 size=N/A time=00:11:51.54 bitrate=N/A speed=17.7x    frame=17298 fps=424 q=-0.0 size=N/A time=00:12:01.47 bitrate=N/A speed=17.7x    frame=17563 fps=425 q=-0.0 size=N/A time=00:12:12.52 bitrate=N/A speed=17.7x    frame=17842 fps=427 q=-0.0 size=N/A time=00:12:24.16 bitrate=N/A speed=17.8x    frame=18075 fps=427 q=-0.0 size=N/A time=00:12:33.87 bitrate=N/A speed=17.8x    frame=18342 fps=428 q=-0.0 size=N/A time=00:12:45.01 bitrate=N/A speed=17.9x    frame=18610 fps=429 q=-0.0 size=N/A time=00:12:56.19 bitrate=N/A speed=17.9x    frame=18848 fps=430 q=-0.0 size=N/A time=00:13:06.11 bitrate=N/A speed=17.9x    frame=19082 fps=430 q=-0.0 size=N/A time=00:13:15.87 bitrate=N/A speed=17.9x    frame=19335 fps=431 q=-0.0 size=N/A time=00:13:26.43 bitrate=N/A speed=  18x    frame=19568 fps=431 q=-0.0 size=N/A time=00:13:36.14 bitrate=N/A speed=  18x    frame=19786 fps=431 q=-0.0 size=N/A time=00:13:45.24 bitrate=N/A speed=  18x    frame=20043 fps=431 q=-0.0 size=N/A time=00:13:55.96 bitrate=N/A speed=  18x    frame=20249 fps=431 q=-0.0 size=N/A time=00:14:04.55 bitrate=N/A speed=  18x    frame=20400 fps=429 q=-0.0 size=N/A time=00:14:10.85 bitrate=N/A speed=17.9x    frame=20603 fps=429 q=-0.0 size=N/A time=00:14:19.31 bitrate=N/A speed=17.9x    frame=20825 fps=429 q=-0.0 size=N/A time=00:14:28.57 bitrate=N/A speed=17.9x    frame=21091 fps=430 q=-0.0 size=N/A time=00:14:39.67 bitrate=N/A speed=17.9x    frame=21335 fps=431 q=-0.0 size=N/A time=00:14:49.84 bitrate=N/A speed=  18x    frame=21611 fps=432 q=-0.0 size=N/A time=00:15:01.35 bitrate=N/A speed=  18x    frame=21880 fps=432 q=-0.0 size=N/A time=00:15:12.57 bitrate=N/A speed=  18x    frame=22154 fps=434 q=-0.0 size=N/A time=00:15:24.00 bitrate=N/A speed=18.1x    frame=22408 fps=434 q=-0.0 size=N/A time=00:15:34.60 bitrate=N/A speed=18.1x    frame=22616 fps=434 q=-0.0 size=N/A time=00:15:43.27 bitrate=N/A speed=18.1x    frame=22860 fps=434 q=-0.0 size=N/A time=00:15:53.45 bitrate=N/A speed=18.1x    frame=23125 fps=435 q=-0.0 size=N/A time=00:16:04.50 bitrate=N/A speed=18.1x    frame=23404 fps=436 q=-0.0 size=N/A time=00:16:16.14 bitrate=N/A speed=18.2x    frame=23667 fps=437 q=-0.0 size=N/A time=00:16:27.11 bitrate=N/A speed=18.2x    frame=23968 fps=438 q=-0.0 size=N/A time=00:16:39.66 bitrate=N/A speed=18.3x    frame=24231 fps=439 q=-0.0 size=N/A time=00:16:50.63 bitrate=N/A speed=18.3x    frame=24462 fps=439 q=-0.0 size=N/A time=00:17:00.26 bitrate=N/A speed=18.3x    frame=24701 fps=439 q=-0.0 size=N/A time=00:17:10.23 bitrate=N/A speed=18.3x    frame=24948 fps=439 q=-0.0 size=N/A time=00:17:20.53 bitrate=N/A speed=18.3x    frame=25196 fps=440 q=-0.0 size=N/A time=00:17:30.88 bitrate=N/A speed=18.3x    frame=25417 fps=440 q=-0.0 size=N/A time=00:17:40.10 bitrate=N/A speed=18.3x    frame=25622 fps=439 q=-0.0 size=N/A time=00:17:48.65 bitrate=N/A speed=18.3x    frame=25858 fps=439 q=-0.0 size=N/A time=00:17:58.49 bitrate=N/A speed=18.3x    frame=26068 fps=439 q=-0.0 size=N/A time=00:18:07.25 bitrate=N/A speed=18.3x    frame=26295 fps=439 q=-0.0 size=N/A time=00:18:16.72 bitrate=N/A speed=18.3x    frame=26536 fps=439 q=-0.0 size=N/A time=00:18:26.77 bitrate=N/A speed=18.3x    frame=26765 fps=439 q=-0.0 size=N/A time=00:18:36.32 bitrate=N/A speed=18.3x    frame=27041 fps=440 q=-0.0 size=N/A time=00:18:47.83 bitrate=N/A speed=18.4x    frame=27284 fps=440 q=-0.0 size=N/A time=00:18:57.97 bitrate=N/A speed=18.4x    frame=27514 fps=441 q=-0.0 size=N/A time=00:19:07.56 bitrate=N/A speed=18.4x    frame=27738 fps=440 q=-0.0 size=N/A time=00:19:16.90 bitrate=N/A speed=18.4x    frame=27999 fps=441 q=-0.0 size=N/A time=00:19:27.79 bitrate=N/A speed=18.4x    frame=28258 fps=441 q=-0.0 size=N/A time=00:19:38.59 bitrate=N/A speed=18.4x    frame=28514 fps=442 q=-0.0 size=N/A time=00:19:49.27 bitrate=N/A speed=18.4x    frame=28730 fps=442 q=-0.0 size=N/A time=00:19:58.28 bitrate=N/A speed=18.4x    frame=28996 fps=442 q=-0.0 size=N/A time=00:20:09.37 bitrate=N/A speed=18.4x    frame=29256 fps=443 q=-0.0 size=N/A time=00:20:20.21 bitrate=N/A speed=18.5x    frame=29535 fps=444 q=-0.0 size=N/A time=00:20:31.85 bitrate=N/A speed=18.5x    frame=29767 fps=444 q=-0.0 size=N/A time=00:20:41.53 bitrate=N/A speed=18.5x    frame=30012 fps=444 q=-0.0 size=N/A time=00:20:51.75 bitrate=N/A speed=18.5x    frame=30288 fps=444 q=-0.0 size=N/A time=00:21:03.26 bitrate=N/A speed=18.5x    frame=30542 fps=445 q=-0.0 size=N/A time=00:21:13.85 bitrate=N/A speed=18.6x    frame=30820 fps=446 q=-0.0 size=N/A time=00:21:25.45 bitrate=N/A speed=18.6x    frame=31077 fps=446 q=-0.0 size=N/A time=00:21:36.16 bitrate=N/A speed=18.6x    frame=31331 fps=446 q=-0.0 size=N/A time=00:21:46.76 bitrate=N/A speed=18.6x    frame=31587 fps=447 q=-0.0 size=N/A time=00:21:57.44 bitrate=N/A speed=18.6x    frame=31856 fps=447 q=-0.0 size=N/A time=00:22:08.66 bitrate=N/A speed=18.7x    frame=32093 fps=447 q=-0.0 size=N/A time=00:22:18.54 bitrate=N/A speed=18.7x    frame=32287 fps=447 q=-0.0 size=N/A time=00:22:26.63 bitrate=N/A speed=18.6x    frame=32550 fps=447 q=-0.0 size=N/A time=00:22:37.60 bitrate=N/A speed=18.7x    frame=32782 fps=447 q=-0.0 size=N/A time=00:22:47.28 bitrate=N/A speed=18.7x    frame=33005 fps=447 q=-0.0 size=N/A time=00:22:56.58 bitrate=N/A speed=18.7x    frame=33204 fps=447 q=-0.0 size=N/A time=00:23:04.88 bitrate=N/A speed=18.6x    frame=33392 fps=446 q=-0.0 size=N/A time=00:23:12.72 bitrate=N/A speed=18.6x    frame=33627 fps=446 q=-0.0 size=N/A time=00:23:22.52 bitrate=N/A speed=18.6x    frame=33835 fps=446 q=-0.0 size=N/A time=00:23:31.20 bitrate=N/A speed=18.6x    frame=34027 fps=445 q=-0.0 size=N/A time=00:23:39.20 bitrate=N/A speed=18.6x    frame=34219 fps=445 q=-0.0 size=N/A time=00:23:47.21 bitrate=N/A speed=18.6x    frame=34409 fps=444 q=-0.0 size=N/A time=00:23:55.14 bitrate=N/A speed=18.5x    frame=34592 fps=444 q=-0.0 size=N/A time=00:24:02.77 bitrate=N/A speed=18.5x    frame=34764 fps=443 q=-0.0 size=N/A time=00:24:09.94 bitrate=N/A speed=18.5x    frame=34913 fps=442 q=-0.0 size=N/A time=00:24:16.16 bitrate=N/A speed=18.4x    frame=35063 fps=441 q=-0.0 size=N/A time=00:24:22.41 bitrate=N/A speed=18.4x    frame=35246 fps=441 q=-0.0 size=N/A time=00:24:30.05 bitrate=N/A speed=18.4x    [Parsed_psnr_10 @ 0000014b23e06580] PSNR y:47.262995 u:49.441201 v:49.765110 average:47.911570 min:37.690439 max:inf
[out#0/null @ 0000014b236d06c0] video:15187KiB audio:276420KiB subtitle:0KiB other streams:0KiB global headers:0KiB muxing overhead: unknown
frame=35344 fps=441 q=-0.0 Lsize=N/A time=00:24:34.13 bitrate=N/A speed=18.4x    
